<mxfile host="app.diagrams.net" agent="Mozilla/5.0 (Windows NT 10.0; Win64; x64) AppleWebKit/537.36 (KHTML, like Gecko) Chrome/133.0.0.0 Safari/537.36" version="26.1.0">
  <diagram name="Trang-1" id="Cb4l4x395kUcxET3afQv">
    <mxGraphModel dx="2261" dy="738" grid="0" gridSize="10" guides="1" tooltips="1" connect="1" arrows="1" fold="1" page="1" pageScale="1" pageWidth="827" pageHeight="1169" math="0" shadow="0">
      <root>
        <mxCell id="0" />
        <mxCell id="1" parent="0" />
        <mxCell id="WkE5vAaHqPPjX8-8Iu4S-13" value="&lt;p style=&quot;margin:0px;margin-top:4px;text-align:center;&quot;&gt;&lt;font style=&quot;font-size: 16px;&quot;&gt;&lt;i style=&quot;&quot;&gt;&amp;lt;&amp;lt;Interface&amp;gt;&amp;gt;&lt;/i&gt;&lt;br&gt;&lt;b style=&quot;&quot;&gt;CustomerInterface&lt;/b&gt;&lt;/font&gt;&lt;/p&gt;&lt;hr size=&quot;1&quot; style=&quot;border-style:solid;&quot;&gt;&lt;p style=&quot;margin:0px;margin-left:4px;&quot;&gt;&lt;font style=&quot;font-size: 16px;&quot;&gt;&lt;br&gt;&lt;/font&gt;&lt;/p&gt;&lt;p style=&quot;margin:0px;margin-left:4px;&quot;&gt;&lt;font style=&quot;font-size: 16px;&quot;&gt;+ register()&lt;br&gt;+ login()&lt;/font&gt;&lt;/p&gt;&lt;p style=&quot;margin:0px;margin-left:4px;&quot;&gt;&lt;font style=&quot;font-size: 16px;&quot;&gt;+ viewProducts()&lt;/font&gt;&lt;/p&gt;&lt;p style=&quot;margin:0px;margin-left:4px;&quot;&gt;&lt;font style=&quot;font-size: 16px;&quot;&gt;+ placeOrder()&lt;/font&gt;&lt;/p&gt;&lt;p style=&quot;margin:0px;margin-left:4px;&quot;&gt;&lt;br&gt;&lt;/p&gt;" style="verticalAlign=top;align=left;overflow=fill;html=1;whiteSpace=wrap;" vertex="1" parent="1">
          <mxGeometry x="-34" y="444.5" width="190" height="171" as="geometry" />
        </mxCell>
        <mxCell id="WkE5vAaHqPPjX8-8Iu4S-16" value="&lt;p style=&quot;margin:0px;margin-top:4px;text-align:center;&quot;&gt;&lt;font style=&quot;font-size: 16px;&quot;&gt;&lt;i style=&quot;&quot;&gt;&amp;lt;&amp;lt;Interface&amp;gt;&amp;gt;&lt;/i&gt;&lt;br&gt;&lt;b style=&quot;&quot;&gt;PaymentInterface&lt;/b&gt;&lt;/font&gt;&lt;/p&gt;&lt;hr size=&quot;1&quot; style=&quot;border-style:solid;&quot;&gt;&lt;p style=&quot;margin:0px;margin-left:4px;&quot;&gt;&lt;font style=&quot;font-size: 16px;&quot;&gt;&lt;br&gt;&lt;/font&gt;&lt;/p&gt;&lt;p style=&quot;margin:0px;margin-left:4px;&quot;&gt;&lt;font style=&quot;font-size: 16px;&quot;&gt;+ selectPaymentMethod()&lt;/font&gt;&lt;/p&gt;&lt;p style=&quot;margin:0px;margin-left:4px;&quot;&gt;&lt;font style=&quot;font-size: 16px;&quot;&gt;+ processPayment()&lt;/font&gt;&lt;/p&gt;&lt;p style=&quot;margin:0px;margin-left:4px;&quot;&gt;&lt;font style=&quot;font-size: 16px;&quot;&gt;+ confirmTransaction()&lt;/font&gt;&lt;/p&gt;" style="verticalAlign=top;align=left;overflow=fill;html=1;whiteSpace=wrap;" vertex="1" parent="1">
          <mxGeometry x="370" y="39" width="190" height="140" as="geometry" />
        </mxCell>
        <mxCell id="WkE5vAaHqPPjX8-8Iu4S-17" value="&lt;p style=&quot;margin:0px;margin-top:4px;text-align:center;&quot;&gt;&lt;font style=&quot;font-size: 16px;&quot;&gt;&lt;i style=&quot;&quot;&gt;&amp;lt;&amp;lt;Interface&amp;gt;&amp;gt;&lt;/i&gt;&lt;br&gt;&lt;b style=&quot;&quot;&gt;AdminInterface&lt;/b&gt;&lt;/font&gt;&lt;/p&gt;&lt;hr size=&quot;1&quot; style=&quot;border-style:solid;&quot;&gt;&lt;p style=&quot;margin:0px;margin-left:4px;&quot;&gt;&lt;font style=&quot;font-size: 16px;&quot;&gt;&lt;br&gt;&lt;/font&gt;&lt;/p&gt;&lt;p style=&quot;margin:0px;margin-left:4px;&quot;&gt;&lt;font style=&quot;font-size: 16px;&quot;&gt;+ addProduct()&lt;br&gt;+ updateProduct()&lt;/font&gt;&lt;/p&gt;&lt;p style=&quot;margin:0px;margin-left:4px;&quot;&gt;&lt;font style=&quot;font-size: 16px;&quot;&gt;+ deleteProduct()&lt;/font&gt;&lt;/p&gt;&lt;p style=&quot;margin:0px;margin-left:4px;&quot;&gt;&lt;font style=&quot;font-size: 16px;&quot;&gt;+ viewOrders()&lt;/font&gt;&lt;/p&gt;" style="verticalAlign=top;align=left;overflow=fill;html=1;whiteSpace=wrap;" vertex="1" parent="1">
          <mxGeometry x="764" y="442.5" width="190" height="175" as="geometry" />
        </mxCell>
        <mxCell id="WkE5vAaHqPPjX8-8Iu4S-23" style="edgeStyle=orthogonalEdgeStyle;rounded=0;orthogonalLoop=1;jettySize=auto;html=1;entryX=1;entryY=0.5;entryDx=0;entryDy=0;endArrow=block;endFill=0;dashed=1;strokeWidth=1;" edge="1" parent="1" source="WkE5vAaHqPPjX8-8Iu4S-18" target="WkE5vAaHqPPjX8-8Iu4S-13">
          <mxGeometry relative="1" as="geometry" />
        </mxCell>
        <mxCell id="WkE5vAaHqPPjX8-8Iu4S-45" style="edgeStyle=orthogonalEdgeStyle;rounded=0;orthogonalLoop=1;jettySize=auto;html=1;entryX=0;entryY=0.5;entryDx=0;entryDy=0;endArrow=diamond;endFill=0;" edge="1" parent="1" source="WkE5vAaHqPPjX8-8Iu4S-18" target="WkE5vAaHqPPjX8-8Iu4S-20">
          <mxGeometry relative="1" as="geometry">
            <Array as="points">
              <mxPoint x="279" y="399" />
            </Array>
          </mxGeometry>
        </mxCell>
        <mxCell id="WkE5vAaHqPPjX8-8Iu4S-18" value="&lt;font style=&quot;font-size: 16px;&quot;&gt;Customer&lt;/font&gt;" style="html=1;whiteSpace=wrap;" vertex="1" parent="1">
          <mxGeometry x="220" y="505" width="110" height="50" as="geometry" />
        </mxCell>
        <mxCell id="WkE5vAaHqPPjX8-8Iu4S-32" style="edgeStyle=orthogonalEdgeStyle;rounded=0;orthogonalLoop=1;jettySize=auto;html=1;endArrow=open;endFill=0;entryX=0;entryY=0.5;entryDx=0;entryDy=0;" edge="1" parent="1" source="WkE5vAaHqPPjX8-8Iu4S-19" target="WkE5vAaHqPPjX8-8Iu4S-22">
          <mxGeometry relative="1" as="geometry" />
        </mxCell>
        <mxCell id="WkE5vAaHqPPjX8-8Iu4S-33" style="edgeStyle=orthogonalEdgeStyle;rounded=0;orthogonalLoop=1;jettySize=auto;html=1;endArrow=open;endFill=0;entryX=1;entryY=0.5;entryDx=0;entryDy=0;" edge="1" parent="1" source="WkE5vAaHqPPjX8-8Iu4S-19" target="WkE5vAaHqPPjX8-8Iu4S-18">
          <mxGeometry relative="1" as="geometry">
            <mxPoint x="370" y="530" as="targetPoint" />
          </mxGeometry>
        </mxCell>
        <mxCell id="WkE5vAaHqPPjX8-8Iu4S-44" style="edgeStyle=orthogonalEdgeStyle;rounded=0;orthogonalLoop=1;jettySize=auto;html=1;entryX=0.5;entryY=1;entryDx=0;entryDy=0;endArrow=diamond;endFill=0;" edge="1" parent="1" source="WkE5vAaHqPPjX8-8Iu4S-19" target="WkE5vAaHqPPjX8-8Iu4S-20">
          <mxGeometry relative="1" as="geometry" />
        </mxCell>
        <mxCell id="WkE5vAaHqPPjX8-8Iu4S-19" value="&lt;font style=&quot;font-size: 16px;&quot;&gt;Product&lt;/font&gt;" style="html=1;whiteSpace=wrap;" vertex="1" parent="1">
          <mxGeometry x="410" y="505" width="110" height="50" as="geometry" />
        </mxCell>
        <mxCell id="WkE5vAaHqPPjX8-8Iu4S-20" value="&lt;font style=&quot;font-size: 16px;&quot;&gt;Order&lt;/font&gt;" style="html=1;whiteSpace=wrap;" vertex="1" parent="1">
          <mxGeometry x="410" y="374" width="110" height="50" as="geometry" />
        </mxCell>
        <mxCell id="WkE5vAaHqPPjX8-8Iu4S-25" style="edgeStyle=orthogonalEdgeStyle;rounded=0;orthogonalLoop=1;jettySize=auto;html=1;endArrow=block;endFill=0;dashed=1;entryX=0.5;entryY=1;entryDx=0;entryDy=0;" edge="1" parent="1" source="WkE5vAaHqPPjX8-8Iu4S-21" target="WkE5vAaHqPPjX8-8Iu4S-16">
          <mxGeometry relative="1" as="geometry">
            <mxPoint x="600" y="319" as="targetPoint" />
          </mxGeometry>
        </mxCell>
        <mxCell id="WkE5vAaHqPPjX8-8Iu4S-47" value="" style="edgeStyle=orthogonalEdgeStyle;rounded=0;orthogonalLoop=1;jettySize=auto;html=1;endArrow=none;startFill=0;" edge="1" parent="1" source="WkE5vAaHqPPjX8-8Iu4S-21" target="WkE5vAaHqPPjX8-8Iu4S-20">
          <mxGeometry relative="1" as="geometry" />
        </mxCell>
        <mxCell id="WkE5vAaHqPPjX8-8Iu4S-21" value="&lt;font style=&quot;font-size: 16px;&quot;&gt;Payment&lt;/font&gt;" style="html=1;whiteSpace=wrap;" vertex="1" parent="1">
          <mxGeometry x="410" y="242" width="110" height="50" as="geometry" />
        </mxCell>
        <mxCell id="WkE5vAaHqPPjX8-8Iu4S-24" style="edgeStyle=orthogonalEdgeStyle;rounded=0;orthogonalLoop=1;jettySize=auto;html=1;entryX=0;entryY=0.5;entryDx=0;entryDy=0;endArrow=block;endFill=0;dashed=1;" edge="1" parent="1" source="WkE5vAaHqPPjX8-8Iu4S-22" target="WkE5vAaHqPPjX8-8Iu4S-17">
          <mxGeometry relative="1" as="geometry" />
        </mxCell>
        <mxCell id="WkE5vAaHqPPjX8-8Iu4S-22" value="&lt;font style=&quot;font-size: 16px;&quot;&gt;Admin&lt;/font&gt;" style="html=1;whiteSpace=wrap;" vertex="1" parent="1">
          <mxGeometry x="600" y="505" width="110" height="50" as="geometry" />
        </mxCell>
      </root>
    </mxGraphModel>
  </diagram>
</mxfile>
